<?xml version="1.0" standalone="no"?>
<!DOCTYPE svg PUBLIC "-//W3C//DTD SVG 1.1//EN" "http://www.w3.org/Graphics/SVG/1.1/DTD/svg11.dtd" >
<svg xmlns="http://www.w3.org/2000/svg" xmlns:xlink="http://www.w3.org/1999/xlink" version="1.1">
<metadata>
Created by FontForge 20170731 at Fri Feb  8 00:34:14 2002
 By Aleksey,,,
Copyright (c) 1993, 1994, 2001 Adobe Systems Incorporated.  All Rights Reserved.
</metadata>
<defs>
<font id="ITCAvantGardeStd-Md" horiz-adv-x="590" >
  <font-face 
    font-family="ITC Avant Garde Std Md"
    font-weight="500"
    font-stretch="normal"
    units-per-em="1000"
    panose-1="2 11 6 2 2 2 2 2 2 4"
    ascent="800"
    descent="-200"
    x-height="544"
    cap-height="740"
    bbox="-127 -268 1154 983"
    underline-thickness="50"
    underline-position="-200"
    unicode-range="U+0020-FB02"
  />
<missing-glyph horiz-adv-x="500" 
d="M0 0v700h500v-700h-500zM250 395l170 255h-340zM280 350l170 -255v510zM80 50h340l-170 255zM50 605v-510l170 255z" />
    <glyph glyph-name="fi" unicode="fi" horiz-adv-x="508" 
d="M336 463h-153v-463h-104v463h-74v81h74v37q0 47 14.5 80.5t34 51t51 27.5t53 12t51.5 2v-82q-16 0 -24.5 -1t-25.5 -6t-26 -14.5t-16.5 -28.5t-7.5 -46v-32h257v-544h-104v463zM440 630h-104v110h104v-110z" />
    <glyph glyph-name="fl" unicode="fl" horiz-adv-x="508" 
d="M336 463h-153v-463h-104v463h-74v81h74v37q0 47 14.5 80.5t34 51t51 27.5t53 12t51.5 2v-82q-16 0 -24.5 -1t-25.5 -6t-26 -14.5t-16.5 -28.5t-7.5 -46v-32h153v195h104v-739h-104v463z" />
    <glyph glyph-name=".notdef" horiz-adv-x="500" 
d="M0 0v700h500v-700h-500zM250 395l170 255h-340zM280 350l170 -255v510zM80 50h340l-170 255zM50 605v-510l170 255z" />
    <glyph glyph-name=".null" horiz-adv-x="0" 
 />
    <glyph glyph-name="nonmarkingreturn" horiz-adv-x="333" 
 />
    <glyph glyph-name="space" unicode=" " horiz-adv-x="295" 
 />
    <glyph glyph-name="exclam" unicode="!" horiz-adv-x="300" 
d="M204 740v-531h-108v531h108zM204 130v-130h-108v130h108z" />
    <glyph glyph-name="quotedbl" unicode="&#x22;" horiz-adv-x="405" 
d="M165 444h-81v296h81v-296zM321 444h-82v296h82v-296z" />
    <glyph glyph-name="numbersign" unicode="#" 
d="M401 249l-28 -204h-73l28 204h-107l-28 -204h-75l29 204h-122l8 71h124l14 102h-123l9 72h124l26 186h74l-26 -186h107l26 186h74l-26 -186h129l-9 -72h-131l-14 -102h129l-8 -71h-131zM338 320l14 102h-107l-14 -102h107z" />
    <glyph glyph-name="dollar" unicode="$" 
d="M343 811v-92q69 -12 108 -60.5t41 -116.5h-99q-4 44 -32.5 69.5t-62.5 25.5q-38 0 -65.5 -27.5t-27.5 -68.5q0 -21 8 -38t18 -28t32.5 -22t38.5 -17t50 -17q72 -26 114.5 -75t42.5 -115q0 -68 -44.5 -124.5t-121.5 -73.5v-98h-88v98q-78 9 -125 65.5t-49 128.5h108
q4 -52 35.5 -81.5t73.5 -29.5q44 0 73.5 30.5t29.5 73.5q0 30 -12.5 52.5t-40 38.5t-47.5 24t-60 21q-143 43 -143 177q0 77 45 125.5t112 62.5v92h88z" />
    <glyph glyph-name="percent" unicode="%" horiz-adv-x="796" 
d="M30 581v1q0 72 49.5 122t122.5 50t122.5 -50t49.5 -123t-49.5 -122.5t-122.5 -49.5q-72 0 -122 49.5t-50 122.5zM104 581v-1q0 -42 28 -70.5t70 -28.5t70.5 29t28.5 72t-28 71.5t-71 28.5t-70.5 -28.5t-27.5 -72.5zM421 159v1q0 72 50 122t123 50q72 0 122 -50t50 -123
t-50 -123t-122 -50q-73 0 -123 49.5t-50 123.5zM494 159v-1q0 -42 28.5 -71t71.5 -29q42 0 70 29t28 72t-28 71.5t-70 28.5q-43 0 -71.5 -28.5t-28.5 -71.5zM622 740l-374 -740h-78l374 740h78z" />
    <glyph glyph-name="ampersand" unicode="&#x26;" horiz-adv-x="741" 
d="M578 449h110l-127 -241l148 -151l-72 -70l-132 136q-34 -65 -83.5 -101t-132.5 -36q-106 0 -171.5 62t-65.5 149q0 42 15.5 78t43 62.5t51 43t54.5 32.5q-83 88 -85 165q0 73 53 124.5t130 51.5t129 -51t52 -122q0 -35 -11.5 -63.5t-34.5 -49.5t-40.5 -33t-45.5 -27
l128 -130zM315 666h-1q-35 0 -57.5 -24.5t-22.5 -57.5q0 -11 2 -20.5t7 -20t8.5 -17t12 -17t11.5 -14t14.5 -15t12.5 -13.5q52 29 74.5 52.5t22.5 62.5q0 34 -23.5 59t-60.5 25zM435 191l-154 157q-115 -58 -115 -142q0 -50 36 -85t91 -35q52 0 83.5 26t58.5 79z" />
    <glyph glyph-name="quotesingle" unicode="'" horiz-adv-x="233" 
d="M157 444h-81v296h81v-296z" />
    <glyph glyph-name="parenleft" unicode="(" horiz-adv-x="451" 
d="M413 754v-117q-89 -49 -153 -154.5t-64 -239.5q0 -132 63 -238t154 -155v-118q-108 47 -184.5 131t-111.5 181t-35 200q0 101 35.5 199t112.5 182.5t183 128.5z" />
    <glyph glyph-name="parenright" unicode=")" horiz-adv-x="451" 
d="M38 -268v116q90 48 154 154t64 240q0 132 -63.5 238t-154.5 155v119q108 -48 184.5 -132t111.5 -181t35 -200q0 -101 -35.5 -199t-112.5 -182.5t-183 -127.5z" />
    <glyph glyph-name="asterisk" unicode="*" horiz-adv-x="627" 
d="M350 740l-18 -140l113 85l34 -63l-126 -53l127 -53l-37 -65l-112 86l19 -139h-73l18 140l-111 -87l-37 65l127 54l-127 52l35 63l114 -84l-19 139h73z" />
    <glyph glyph-name="plus" unicode="+" horiz-adv-x="600" 
d="M350 504v-202h201v-101h-201v-201h-100v201h-201v101h201v202h100z" />
    <glyph glyph-name="comma" unicode="," horiz-adv-x="297" 
d="M204 131l-83 -207h-90l63 207h110z" />
    <glyph glyph-name="hyphen" unicode="-" horiz-adv-x="274" 
d="M0 335h274v-103h-274v103z" />
    <glyph glyph-name="period" unicode="." horiz-adv-x="297" 
d="M204 130v-130h-109v130h109z" />
    <glyph glyph-name="slash" unicode="/" horiz-adv-x="559" 
d="M70 -100l303 840h117l-303 -840h-117z" />
    <glyph glyph-name="zero" unicode="0" 
d="M36 247v242q0 75 28 130.5t71.5 83t83.5 39.5t76 12q44 0 87.5 -15.5t83 -45.5t64 -82t24.5 -118v-246q0 -57 -18 -103.5t-45.5 -75t-63 -48t-68 -27t-62.5 -7.5q-40 0 -82.5 14t-84 42t-68 81.5t-26.5 123.5zM153 493v-249q0 -65 39 -109.5t103 -44.5q59 0 100 45
t41 109v252q0 24 -6.5 48.5t-21.5 49.5t-45 40.5t-70 15.5q-65 0 -102.5 -45t-37.5 -112z" />
    <glyph glyph-name="one" unicode="1" 
d="M247 0v640h-140v100h258v-740h-118z" />
    <glyph glyph-name="two" unicode="2" 
d="M54 0v93q37 35 113.5 106.5t115.5 108.5q39 35 53.5 49.5t39.5 44t35 57t11 58.5q0 62 -36 97.5t-92 35.5q-58 0 -91 -44t-35 -116h-113q3 108 58 176q36 48 88.5 68t102.5 20q107 0 171.5 -66t63.5 -163q-1 -61 -28 -111t-88 -110q-138 -136 -208 -204h327v-100h-488z
" />
    <glyph glyph-name="three" unicode="3" 
d="M188 551h-116q2 70 38.5 118t83 66.5t96.5 18.5q89 0 147 -54t58 -135q0 -103 -100 -156q46 -16 78 -43t45 -57t17.5 -50.5t4.5 -40.5q0 -99 -73 -165.5t-180 -66.5q-60 0 -117 24.5t-90 70.5q-42 60 -44 137h119q3 -55 40.5 -91t94.5 -37q61 0 96.5 38t35.5 96
q0 56 -43 93.5t-106 37.5h-55v89h35q56 0 90.5 31.5t34.5 73.5q0 43 -25 72t-67 29q-48 0 -71.5 -30t-26.5 -69z" />
    <glyph glyph-name="four" unicode="4" 
d="M363 0v136h-353v88l351 516h116v-510h79v-94h-79v-136h-114zM131 230h239v367z" />
    <glyph glyph-name="five" unicode="5" 
d="M127 740h375v-100h-284l-33 -181q58 39 126 39q113 0 179.5 -77.5t66.5 -172.5q0 -102 -73.5 -182t-193.5 -80q-101 0 -176 60.5t-90 160.5h118q12 -52 53.5 -84.5t91.5 -32.5q62 0 107.5 46t45.5 109q0 64 -44 109.5t-109 45.5q-81 0 -130 -74l-96 24z" />
    <glyph glyph-name="six" unicode="6" 
d="M294 740h135l-143 -205q-3 -4 -34 -48q31 19 76 19q94 0 165.5 -69t71.5 -182q0 -114 -77.5 -191.5t-190.5 -77.5q-136 0 -210 92q-61 71 -61 175q0 93 66 192zM142 244v-1q0 -66 43.5 -109.5t107.5 -43.5q66 0 110 45t44 110q0 69 -45 113t-107 44q-59 0 -106 -42
t-47 -116z" />
    <glyph glyph-name="seven" unicode="7" 
d="M75 740h442v-92l-291 -648h-129l298 640h-320v100z" />
    <glyph glyph-name="eight" unicode="8" 
d="M76 562v1q0 77 60 134t159 57t158.5 -57t59.5 -135q0 -53 -26 -91.5t-62 -58.5q57 -23 88 -73.5t31 -115.5q-1 -102 -71.5 -169.5t-177.5 -67.5q-108 0 -178.5 67.5t-71.5 169.5q1 64 31.5 115t88.5 74q-36 20 -62.5 58.5t-26.5 91.5zM191 553v-1q0 -43 30.5 -72.5
t73.5 -29.5t73.5 29.5t30.5 73.5t-30.5 74t-73.5 30t-73.5 -30t-30.5 -74zM163 224v-1q0 -53 38 -93t94 -40t94 40t38 94q0 55 -37.5 94.5t-94.5 39.5t-94.5 -39.5t-37.5 -94.5z" />
    <glyph glyph-name="nine" unicode="9" 
d="M297 0h-135l143 205q5 8 17 24t17 24q-31 -19 -76 -19q-94 0 -165.5 68.5t-71.5 182.5t77.5 191.5t190.5 77.5q136 0 210 -92q60 -70 60 -175q0 -95 -65 -192zM448 496v1q0 66 -43 109.5t-108 43.5t-109 -45t-44 -110q0 -68 44.5 -112t105.5 -44q60 0 107 42t47 115z" />
    <glyph glyph-name="colon" unicode=":" horiz-adv-x="297" 
d="M204 544v-130h-109v130h109zM204 130v-130h-109v130h109z" />
    <glyph glyph-name="semicolon" unicode=";" horiz-adv-x="297" 
d="M203 544v-130h-109v130h109zM205 131l-89 -207h-85l64 207h110z" />
    <glyph glyph-name="less" unicode="&#x3c;" horiz-adv-x="600" 
d="M48 302l504 223v-110l-397 -163l397 -163v-110l-504 223v100z" />
    <glyph glyph-name="equal" unicode="=" horiz-adv-x="600" 
d="M49 418h502v-100h-502v100zM49 186h502v-101h-502v101z" />
    <glyph glyph-name="greater" unicode="&#x3e;" horiz-adv-x="600" 
d="M48 89l397 164l-397 162v110l504 -223v-100l-504 -223v110z" />
    <glyph glyph-name="question" unicode="?" horiz-adv-x="567" 
d="M322 204h-110q2 53 23 96.5t75 95.5q31 31 45.5 47.5t26.5 40t12 48.5q0 49 -31 81t-82 32q-47 0 -80 -28.5t-40 -78.5q-2 -18 -2 -25h-114v22q6 101 77 160t164 59q99 0 163 -63t64 -149q0 -31 -9 -58t-29.5 -53.5t-34 -41t-42.5 -41.5q-47 -45 -61 -77t-15 -67z
M321 130v-130h-109v130h109z" />
    <glyph glyph-name="at" unicode="@" horiz-adv-x="770" 
d="M657 146l23 -51q-56 -57 -136 -83.5t-140 -26.5q-92 0 -167.5 34t-122.5 89t-72 121.5t-25 135.5q0 159 110 274.5t278 115.5q145 0 247 -90t102 -231q0 -118 -69.5 -196t-143.5 -78q-32 0 -58 17.5t-32 55.5q-47 -71 -123 -71q-52 0 -93 41t-41 115q0 93 60 171t143 78
q79 0 103 -70l16 56h70l-64 -242q0 -1 -4.5 -21t-4.5 -28q-2 -39 39 -39q45 0 91.5 60.5t46.5 149.5q0 118 -83.5 189t-198.5 71q-136 0 -229 -96t-93 -233q0 -55 19 -109t56 -101.5t100 -77t142 -29.5q70 0 138.5 25t115.5 74zM266 320v-1q0 -49 24 -71.5t54 -22.5
q44 0 71.5 29t40.5 68q25 79 25 98q-1 37 -23 60.5t-53 23.5q-53 0 -96 -56t-43 -128z" />
    <glyph glyph-name="A" unicode="A" horiz-adv-x="726" 
d="M204 175l-68 -175h-128l304 740h107l299 -740h-128l-70 175h-316zM488 270l-127 333l-125 -333h252z" />
    <glyph glyph-name="B" unicode="B" horiz-adv-x="599" 
d="M71 0v740h221q102 0 157 -40q75 -46 75 -150q0 -105 -94 -155q45 -14 74.5 -40t41.5 -56t15.5 -49t3.5 -38q-2 -116 -90 -169q-38 -26 -77 -34.5t-110 -8.5h-217zM189 636v-203h97q50 0 75 12q50 27 50 91q0 32 -14.5 54.5t-35.5 32.5q-26 13 -78 13h-94zM189 334v-230
h119q49 0 79 12q64 28 65 103q0 75 -65 102q-31 13 -89 13h-109z" />
    <glyph glyph-name="C" unicode="C" horiz-adv-x="811" 
d="M653 225h124q-35 -104 -131.5 -171.5t-219.5 -67.5q-165 0 -276 112.5t-111 272.5q0 102 48 189t137.5 140.5t200.5 53.5q71 0 133.5 -23.5t105 -60.5t71.5 -77.5t43 -81.5h-125q-25 49 -84 93.5t-145 45.5q-115 0 -191 -82t-76 -197q0 -117 76.5 -199t191.5 -82
q50 0 92.5 16t70.5 42.5t41.5 43t23.5 33.5z" />
    <glyph glyph-name="D" unicode="D" horiz-adv-x="724" 
d="M71 0v740h229q210 0 304 -120q81 -97 81 -249q0 -170 -94.5 -270.5t-282.5 -100.5h-237zM189 636v-532h125q126 0 190 72t64 193q0 116 -60 189q-68 78 -193 78h-126z" />
    <glyph glyph-name="E" unicode="E" horiz-adv-x="537" 
d="M71 0v740h414v-104h-296v-210h292v-103h-292v-219h296v-104h-414z" />
    <glyph glyph-name="F" unicode="F" horiz-adv-x="493" 
d="M71 0v740h386v-104h-268v-216h264v-103h-264v-317h-118z" />
    <glyph glyph-name="G" unicode="G" horiz-adv-x="854" 
d="M783 530h-133q-29 42 -68 70q-69 50 -156 50q-110 0 -190.5 -77t-80.5 -201q0 -128 80.5 -205t190.5 -77q100 0 171 55q70 53 87 132h-319v96h456q0 -93 -33 -166q-49 -106 -149.5 -163.5t-211.5 -57.5q-164 0 -276.5 111.5t-112.5 274.5q0 164 113.5 273t276.5 109
q118 0 216.5 -63.5t138.5 -160.5z" />
    <glyph glyph-name="H" unicode="H" horiz-adv-x="698" 
d="M189 0h-118v740h118v-312h319v312h118v-740h-118v324h-319v-324z" />
    <glyph glyph-name="I" unicode="I" horiz-adv-x="261" 
d="M71 0v740h118v-740h-118z" />
    <glyph glyph-name="J" unicode="J" horiz-adv-x="522" 
d="M450 740v-483q0 -105 -21 -152q-24 -49 -68 -78q-60 -41 -135 -41q-22 0 -48.5 6t-62.5 21.5t-65 51.5t-39 87q-3 13 -5 43h126q0 -4 2 -18q11 -44 39 -65.5t59 -21.5q35 1 58 17.5t32 40.5q11 32 11 83v509h117z" />
    <glyph glyph-name="K" unicode="K" horiz-adv-x="630" 
d="M89 0v740h118v-350l271 350h125l-288 -369l317 -371h-145l-280 341v-341h-118z" />
    <glyph glyph-name="L" unicode="L" horiz-adv-x="458" 
d="M74 0v740h118v-636h261v-104h-379z" />
    <glyph glyph-name="M" unicode="M" horiz-adv-x="923" 
d="M181 0h-110v740h162l230 -573l227 573h161v-740h-109l3 624l-245 -624h-77l-245 624z" />
    <glyph glyph-name="N" unicode="N" horiz-adv-x="750" 
d="M182 740l384 -563l-2 563h114v-740h-108l-387 564l2 -564h-114v740h111z" />
    <glyph glyph-name="O" unicode="O" horiz-adv-x="851" 
d="M38 365v1q0 171 113.5 279.5t273.5 108.5q165 0 276.5 -111.5t111.5 -272.5t-112 -272.5t-277 -111.5t-275.5 111.5t-110.5 267.5zM155 371v-1q0 -117 77.5 -198.5t194.5 -81.5t192.5 83.5t75.5 195.5q0 113 -75.5 197t-193.5 84t-194.5 -82t-76.5 -197z" />
    <glyph glyph-name="P" unicode="P" horiz-adv-x="580" 
d="M67 740h211q84 0 129 -11.5t79 -38.5q38 -30 60 -79t22 -103q0 -53 -21.5 -103.5t-55.5 -78.5q-38 -30 -82.5 -42.5t-119.5 -12.5h-104v-271h-118v740zM185 636v-261h102q75 0 115 25q23 13 38 41.5t15 64.5q0 75 -54 106q-40 24 -118 24h-98z" />
    <glyph glyph-name="Q" unicode="Q" horiz-adv-x="873" 
d="M868 84v-97q-36 2 -56 4q-91 7 -161 60q-101 -65 -217 -65q-115 0 -205.5 55t-137.5 141.5t-47 185.5q0 158 110 272t277 114t278.5 -112.5t111.5 -268.5q0 -141 -91 -248q50 -34 138 -41zM432 650h-1q-103 0 -176.5 -66.5t-85.5 -172.5q-2 -40 5 -72q75 25 137 25
q102 0 185 -52q36 -22 142 -112q66 68 66 173q0 121 -79.5 199t-192.5 78zM433 90h1q81 0 132 37q-19 20 -89 78q-81 59 -178 59q-58 0 -108 -21q20 -44 51.5 -76t66.5 -47.5t65.5 -22.5t58.5 -7z" />
    <glyph glyph-name="R" unicode="R" horiz-adv-x="609" 
d="M67 0v740h209q153 0 215 -43q46 -30 72 -83.5t26 -116.5q0 -80 -42 -141q-46 -64 -143 -81l174 -275h-125l-203 334h26q111 0 148 32q51 45 51 121q0 38 -17 72t-46 53q-38 24 -126 24h-101v-636h-118z" />
    <glyph glyph-name="S" unicode="S" horiz-adv-x="548" 
d="M34 219h117q3 -39 17 -67t34.5 -41.5t38.5 -19t35 -5.5q50 0 86.5 34.5t36.5 83.5q0 27 -10 47t-31.5 34.5t-44 24.5t-59.5 23l-10.5 3.5t-9.5 3.5q-26 8 -43 15t-47 24t-48.5 36.5t-33.5 52.5t-15 73q-1 98 69 155.5t164 57.5q38 0 74 -11t69 -33.5t55 -64t25 -95.5
h-116q-4 19 -9.5 33.5t-17 32.5t-33 28t-51.5 10q-46 0 -79 -29t-33 -75q0 -26 8.5 -43.5t33 -33t47.5 -25t74 -28.5q7 -3 11 -4q41 -17 68 -32.5t54.5 -39.5t41.5 -57.5t14 -76.5q0 -95 -63 -159.5t-176 -64.5q-110 0 -176 63t-67 170z" />
    <glyph glyph-name="T" unicode="T" horiz-adv-x="474" 
d="M178 0v636h-170v104h458v-104h-170v-636h-118z" />
    <glyph glyph-name="U" unicode="U" horiz-adv-x="656" 
d="M70 740h118v-462q0 -30 1 -46t7 -39.5t19 -43.5q37 -59 114 -59q78 0 112 57q13 20 19.5 43.5t7.5 40t1 47.5v462h117v-462q1 -79 -16.5 -134t-63.5 -93q-72 -65 -176 -65q-114 0 -179 64q-50 45 -66 97.5t-15 130.5v462z" />
    <glyph glyph-name="V" unicode="V" horiz-adv-x="697" 
d="M289 0l-277 740h122l214 -596l215 596h122l-279 -740h-117z" />
    <glyph glyph-name="W" unicode="W" horiz-adv-x="939" 
d="M214 0l-200 740h120l146 -579l145 579h89l147 -580l144 580h120l-204 -740h-109l-143 561l-143 -561h-112z" />
    <glyph glyph-name="X" unicode="X" horiz-adv-x="668" 
d="M10 0l256 386l-236 354h134l170 -267l169 267h133l-233 -356l255 -384h-134l-194 301l-189 -301h-131z" />
    <glyph glyph-name="Y" unicode="Y" horiz-adv-x="605" 
d="M244 0v263l-232 477h128l163 -366l163 366h128l-232 -477v-263h-118z" />
    <glyph glyph-name="Z" unicode="Z" horiz-adv-x="499" 
d="M478 648l-317 -544h326v-104h-469v76l327 560h-333v104h466v-92z" />
    <glyph glyph-name="bracketleft" unicode="[" horiz-adv-x="451" 
d="M380 -113v-88h-265v941h265v-87h-164v-766h164z" />
    <glyph glyph-name="backslash" unicode="\" horiz-adv-x="559" 
d="M373 -100l-303 840h116l304 -840h-117z" />
    <glyph glyph-name="bracketright" unicode="]" horiz-adv-x="451" 
d="M71 -201v88h164v766h-164v87h266v-941h-266z" />
    <glyph glyph-name="asciicircum" unicode="^" horiz-adv-x="600" 
d="M74 375l173 365h106l173 -365h-114l-113 272l-112 -272h-113z" />
    <glyph glyph-name="underscore" unicode="_" horiz-adv-x="500" 
d="M500 -125h-500v50h500v-50z" />
    <glyph glyph-name="grave" unicode="`" horiz-adv-x="555" 
d="M160 800l240 -133l-31 -64l-243 122z" />
    <glyph glyph-name="a" unicode="a" horiz-adv-x="691" 
d="M622 544v-544h-104v95q-28 -54 -82 -82.5t-120 -28.5q-127 0 -203 84.5t-76 203.5q0 124 80 206t199 82q75 0 127.5 -33.5t74.5 -78.5v96h104zM141 271v-1q1 -71 50 -130t140 -59q60 0 104 29.5t65 78.5q17 36 19 81q2 44 -16 81q-21 50 -66 81t-108 31
q-83 0 -135.5 -56.5t-52.5 -135.5z" />
    <glyph glyph-name="b" unicode="b" horiz-adv-x="684" 
d="M68 0v740h104v-197v-86q36 51 90 76.5t110 26.5q112 0 194 -78t82 -208q0 -129 -80.5 -209.5t-199.5 -80.5q-68 0 -120.5 30t-79.5 80v-94h-100zM544 272v1q0 80 -54 135t-134 55q-82 0 -135 -55.5t-53 -134.5q0 -80 52 -136t133 -56q88 0 139 57.5t52 133.5z" />
    <glyph glyph-name="c" unicode="c" horiz-adv-x="637" 
d="M497 191h107q-25 -91 -100.5 -149t-175.5 -58q-129 0 -210 85t-81 203q0 121 82 204.5t204 83.5q99 0 177.5 -57t103.5 -154h-107q-21 54 -67 84t-103 30q-76 1 -133 -53q-53 -53 -53 -138q0 -83 53.5 -137t132.5 -54q64 1 108 33t62 77z" />
    <glyph glyph-name="d" unicode="d" horiz-adv-x="689" 
d="M619 740v-740h-100v95q-59 -111 -203 -111q-125 0 -202 84t-77 205q0 125 79.5 206t197.5 81q75 0 128 -33t73 -72v96v189h104zM141 273v-1q1 -79 53 -135t138 -56q81 0 136 57q56 56 53 137q0 81 -55 134q-54 54 -134 54q-84 0 -137.5 -55.5t-53.5 -134.5z" />
    <glyph glyph-name="e" unicode="e" horiz-adv-x="634" 
d="M600 239h-465q4 -77 59.5 -121.5t123.5 -44.5q109 0 157 92h108q-38 -88 -110 -135q-68 -46 -155 -46q-128 0 -208 86.5t-80 200.5q0 119 82.5 204t204.5 85q119 0 201 -80q96 -98 82 -241zM137 320h360q-4 58 -55.5 105t-124.5 46q-76 0 -126 -46t-54 -105z" />
    <glyph glyph-name="f" unicode="f" horiz-adv-x="291" 
d="M79 0v463h-74v81h74v37q0 47 14.5 80.5t34 51t51 27.5t53 12t51.5 2v-82q-16 0 -24.5 -1t-25.5 -6t-26 -14.5t-16.5 -28.5t-7.5 -46v-32h100v-81h-100v-463h-104z" />
    <glyph glyph-name="g" unicode="g" horiz-adv-x="685" 
d="M618 544v-481q0 -128 -64 -202q-39 -45 -99.5 -72t-129.5 -27q-108 0 -178 53t-92 128h120q18 -37 60 -63q43 -29 94 -29q73 0 129 51t56 138v56q-26 -49 -76 -80.5t-120 -31.5q-122 0 -201.5 82t-79.5 204q0 126 80.5 208t200.5 82q66 0 119.5 -30.5t76.5 -77.5v92h104z
M141 273v-1q0 -79 52 -135t136 -56q81 0 134 55q51 53 53 133q0 75 -44 129q-51 64 -143 64q-79 0 -133.5 -53t-54.5 -136z" />
    <glyph glyph-name="h" unicode="h" horiz-adv-x="636" 
d="M68 0v740h104v-187v-85q23 46 71.5 69.5t105.5 22.5q119 0 174 -76q47 -65 47 -187v-297h-105v292q0 80 -31 122q-38 48 -114 48q-77 0 -115 -50q-33 -42 -33 -105v-307h-104z" />
    <glyph glyph-name="i" unicode="i" horiz-adv-x="240" 
d="M68 630v110h104v-110h-104zM68 0v544h104v-544h-104z" />
    <glyph glyph-name="j" unicode="j" horiz-adv-x="275" 
d="M91 629v111h104v-111h-104zM195 544v-535q0 -47 -5 -78.5t-21 -64.5t-51.5 -51t-91.5 -22q-9 -1 -29 -1v83q12 0 17 1q26 3 42.5 13.5t23.5 30t9 38t2 48.5v538h104z" />
    <glyph glyph-name="k" unicode="k" horiz-adv-x="535" 
d="M71 0v740h105v-411l213 215h126l-242 -239l249 -305h-121l-225 280v-280h-105z" />
    <glyph glyph-name="l" unicode="l" horiz-adv-x="240" 
d="M68 0v740h104v-740h-104z" />
    <glyph glyph-name="m" unicode="m" horiz-adv-x="960" 
d="M68 0v544h98v-77q19 38 64 65.5t101 27.5q89 0 140 -58q8 -8 35 -53q19 34 39 54q57 57 144 57q92 0 146 -55q35 -36 47.5 -80.5t12.5 -124.5v-300h-104v296q0 82 -30 121q-31 45 -97 45q-73 0 -105 -52q-25 -39 -25 -110v-300h-105v300q2 69 -22 108q-33 53 -103 54
t-103 -53q-29 -42 -29 -111v-298h-104z" />
    <glyph glyph-name="n" unicode="n" horiz-adv-x="636" 
d="M68 0v544h98v-84q21 45 68 73t116 27q62 -1 107 -22t68.5 -57.5t34 -76t10.5 -85.5v-319h-105v295q0 79 -34 123.5t-110 43.5q-74 -1 -111.5 -43.5t-37.5 -115.5v-303h-104z" />
    <glyph glyph-name="o" unicode="o" horiz-adv-x="655" 
d="M37 272v1q0 115 79.5 201t210.5 86t210.5 -86t79.5 -202t-79.5 -201.5t-210.5 -85.5t-210.5 85.5t-79.5 201.5zM141 272v-1q0 -81 54 -135t132 -54t132 54.5t54 135.5t-54 135.5t-132 54.5t-132 -54.5t-54 -135.5z" />
    <glyph glyph-name="p" unicode="p" horiz-adv-x="688" 
d="M68 -198v742h99v-95q70 111 208 111q89 0 153.5 -45.5t93 -110t28.5 -135.5q0 -118 -77 -201.5t-197 -83.5q-76 0 -129 32.5t-75 73.5v-90v-198h-104zM545 272v1q0 74 -50.5 132t-139.5 58q-81 0 -135 -56q-53 -55 -53 -136t54 -135q55 -55 135 -55q82 0 135.5 55.5
t53.5 135.5z" />
    <glyph glyph-name="q" unicode="q" horiz-adv-x="687" 
d="M619 544v-742h-104v198v92q-22 -42 -74.5 -75t-130.5 -33q-120 0 -196.5 82.5t-76.5 199.5q0 128 79 211t200 83q75 0 126 -32t77 -77v93h100zM141 270v-1q0 -76 53.5 -132t136.5 -56q79 0 134 55t55 135q3 78 -53 136q-56 56 -136 56q-88 0 -138.5 -58t-51.5 -135z" />
    <glyph glyph-name="r" unicode="r" horiz-adv-x="336" 
d="M68 0v544h98v-80q46 94 162 96v-104h-7q-149 0 -149 -162v-294h-104z" />
    <glyph glyph-name="s" unicode="s" horiz-adv-x="466" 
d="M411 402h-103q0 33 -20.5 53.5t-58.5 19.5q-37 0 -58 -20.5t-20 -49.5q1 -30 26 -48t73 -31q25 -7 36.5 -10.5t34 -11.5t34 -15.5t27.5 -20t24 -27t14 -35t7 -44.5q1 -78 -55 -128t-139 -50q-46 0 -88.5 16.5t-75 57.5t-34.5 99h103q3 -45 32 -66.5t64 -21.5
q38 0 63.5 23.5t25.5 57.5q-1 38 -30 58t-109 46q-65 20 -100.5 52t-36.5 89q0 75 53 120t130 45q30 0 59 -8t56 -25t45 -49.5t21 -75.5z" />
    <glyph glyph-name="t" unicode="t" horiz-adv-x="326" 
d="M107 0v463h-98v81h98v196h104v-196h105v-81h-105v-463h-104z" />
    <glyph glyph-name="u" unicode="u" horiz-adv-x="637" 
d="M569 544v-544h-98v84q-21 -45 -68 -73t-116 -27q-63 0 -108 21.5t-68 57.5t-33.5 76t-10.5 86v319h104v-295q0 -168 145 -168q74 1 111.5 43.5t37.5 115.5v304h104z" />
    <glyph glyph-name="v" unicode="v" horiz-adv-x="542" 
d="M531 544l-208 -544h-104l-208 544h109l151 -414l151 414h109z" />
    <glyph glyph-name="w" unicode="w" horiz-adv-x="809" 
d="M190 0l-182 544h109l128 -411l116 379h87l118 -379l126 411h108l-181 -544h-99l-117 381l-114 -381h-99z" />
    <glyph glyph-name="x" unicode="x" horiz-adv-x="530" 
d="M5 0l196 283l-183 261h126l121 -187l120 187h124l-182 -261l197 -283h-127l-132 202l-133 -202h-127z" />
    <glyph glyph-name="y" unicode="y" horiz-adv-x="532" 
d="M123 -198l90 214l-208 528h112l150 -398l152 398h112l-297 -742h-111z" />
    <glyph glyph-name="z" unicode="z" horiz-adv-x="427" 
d="M14 0v74l276 389h-268v81h383v-82l-267 -381h275v-81h-399z" />
    <glyph glyph-name="braceleft" unicode="{" horiz-adv-x="496" 
d="M421 746v-81h-55q-37 0 -48.5 -20.5t-11.5 -67.5v-198q0 -37 -20 -70.5t-38.5 -48.5t-37.5 -26q37 -10 66.5 -44.5t29.5 -88.5v-199q0 -49 11.5 -68.5t48.5 -19.5h55v-82h-101q-55 0 -88 33.5t-33 99.5v199q0 86 -90 117v108q32 5 61 37t29 86v203q0 66 32.5 98.5
t88.5 32.5h101z" />
    <glyph glyph-name="bar" unicode="|" horiz-adv-x="555" 
d="M221 750h114v-1000h-114v1000z" />
    <glyph glyph-name="braceright" unicode="}" horiz-adv-x="496" 
d="M75 665v81h101q56 0 88.5 -32.5t32.5 -98.5v-203q0 -54 29 -86t61 -37v-108q-90 -31 -90 -117v-199q0 -66 -33 -99.5t-88 -33.5h-101v82h55q37 0 48.5 19.5t11.5 68.5v199q0 27 11.5 52t28.5 41.5t30.5 26t25.5 15.5q-40 14 -68 50t-28 93v198q0 48 -11 68t-49 20h-55z
" />
    <glyph glyph-name="asciitilde" unicode="~" horiz-adv-x="600" 
d="M500 338l29 -96q-54 -80 -115 -80q-41 0 -107 34q-70 36 -114 36q-55 1 -94 -66l-28 94q45 85 125 82q38 0 114 -34q80 -36 104 -36q18 0 35 11t27 22.5t24 32.5z" />
    <glyph glyph-name="uni00A0" unicode="&#xa0;" horiz-adv-x="295" 
 />
    <glyph glyph-name="exclamdown" unicode="&#xa1;" horiz-adv-x="300" 
d="M96 414v130h108v-130h-108zM96 -196v531h108v-531h-108z" />
    <glyph glyph-name="cent" unicode="&#xa2;" 
d="M346 35h-89v106q-51 11 -90 37t-60.5 59.5t-31.5 67t-10 66.5q0 77 48 145.5t144 88.5v100h86v-99q68 -15 116 -59.5t66 -104.5h-110q-35 64 -112 64q-58 0 -96 -38.5t-38 -93.5t36.5 -95t97.5 -40q72 0 110 59h113q-23 -63 -72.5 -104.5t-107.5 -52.5v-106z" />
    <glyph glyph-name="sterling" unicode="&#xa3;" 
d="M409 406v-85h-152q65 -58 65 -125q0 -48 -42 -102h64q64 0 96 25q41 38 41 89q0 15 -7 43h103q8 -30 8 -58q0 -73 -52 -130q-32 -32 -71.5 -47.5t-104.5 -15.5h-317v94h94q72 16 72 94q0 66 -75 133h-121v85h65q-33 48 -33 107q0 97 70.5 169t182.5 72q96 0 166.5 -58.5
t82.5 -159.5h-110q-12 48 -46.5 81t-90.5 33q-60 0 -98 -40t-40 -100q1 -57 42 -104h208z" />
    <glyph glyph-name="currency" unicode="&#xa4;" 
d="M517 68l-79 80q-66 -47 -143 -47t-143 47l-80 -79l-54 53l82 82q-47 63 -47 137q0 79 48 141l-84 82l55 55l83 -83q63 46 140 46t138 -45l83 81l54 -54l-81 -81q47 -65 47 -142q0 -75 -46 -137l81 -81zM152 342v-1q0 -58 42.5 -100t100.5 -42t100 42t42 101t-41.5 101
t-100.5 42q-58 0 -100.5 -42t-42.5 -101z" />
    <glyph glyph-name="yen" unicode="&#xa5;" 
d="M558 472v-88h-186l-20 -39v-53h206v-88h-206v-204h-116v204h-204v88h204v52l-21 40h-182v88h137l-155 268h125l155 -288l158 288h123l-156 -268h138z" />
    <glyph glyph-name="brokenbar" unicode="&#xa6;" horiz-adv-x="555" 
d="M221 675h114v-350h-114v350zM221 175h114v-350h-114v350z" />
    <glyph glyph-name="section" unicode="&#xa7;" horiz-adv-x="627" 
d="M536 565h-103q-14 93 -117 93q-44 0 -75 -23t-31 -67q0 -25 14.5 -44t27.5 -27t36 -18l167 -77q22 -10 37 -19t38 -28.5t35.5 -48.5t12.5 -65q0 -89 -90 -157q59 -54 59 -134q0 -83 -61 -141t-166 -58q-33 0 -65 6.5t-65.5 23.5t-59 42.5t-42.5 66t-18 91.5h103
q4 -70 44 -102t101 -32q60 0 92.5 29t34.5 73q-1 33 -25 56t-71 45l-181 84q-18 8 -28 13.5t-30 20.5t-31 31t-20.5 43t-9.5 60q0 95 98 157q-38 50 -38 110q0 88 62.5 136.5t149.5 48.5q97 0 155 -54t60 -135zM484 225v1q-1 34 -23 54.5t-62 38.5l-191 89q-63 -31 -63 -92
q0 -58 64 -89l212 -97q24 12 43 38t20 57z" />
    <glyph glyph-name="dieresis" unicode="&#xa8;" horiz-adv-x="555" 
d="M226 763v-135h-101v135h101zM429 763v-135h-101v135h101z" />
    <glyph glyph-name="copyright" unicode="&#xa9;" horiz-adv-x="800" 
d="M402 753h1q159 0 269 -112.5t110 -270.5q0 -160 -111.5 -271.5t-269.5 -111.5q-160 0 -271.5 111t-111.5 272q0 158 110.5 270.5t273.5 112.5zM401 699h-1q-138 0 -231 -96.5t-93 -232.5q0 -138 94.5 -233.5t230.5 -95.5q134 0 228.5 95.5t94.5 233.5q0 136 -93 232.5
t-230 96.5zM597 443h-70q-12 50 -46 71.5t-75 21.5q-67 0 -105 -47t-38 -118q0 -76 40.5 -119.5t102.5 -43.5q13 0 27 3t36.5 13.5t39.5 37.5t23 67h71q-7 -85 -62.5 -134t-137.5 -49q-92 0 -152 60.5t-60 164.5q0 98 58 162.5t157 64.5q80 0 133 -46t58 -109z" />
    <glyph glyph-name="ordfeminine" unicode="&#xaa;" horiz-adv-x="409" 
d="M362 744v-307h-67v54q-31 -63 -110 -63q-68 0 -113 48t-45 115q0 71 46.5 117t112.5 46q75 0 109 -64v54h67zM94 589v-1q0 -35 27 -65.5t74 -30.5q63 0 90 54q10 20 10 45q0 23 -8 42q-12 26 -36.5 41.5t-56.5 15.5q-42 0 -71 -29t-29 -72z" />
    <glyph glyph-name="guillemotleft" unicode="&#xab;" horiz-adv-x="390" 
d="M34 280l105 188h80l-105 -188l105 -186h-80zM184 280l105 188h80l-105 -188l105 -186h-80z" />
    <glyph glyph-name="logicalnot" unicode="&#xac;" horiz-adv-x="600" 
d="M48 407h504v-285h-101v185h-403v100z" />
    <glyph glyph-name="uni00AD" unicode="&#xad;" horiz-adv-x="274" 
d="M0 335h274v-103h-274v103z" />
    <glyph glyph-name="registered" unicode="&#xae;" horiz-adv-x="800" 
d="M402 753h1q159 0 269 -112.5t110 -270.5q0 -160 -111.5 -271.5t-269.5 -111.5q-160 0 -271.5 111t-111.5 272q0 157 110.5 270t273.5 113zM401 699h-1q-137 0 -230.5 -96.5t-93.5 -232.5q0 -137 94.5 -233t230.5 -96q134 0 228.5 95.5t94.5 233.5q0 135 -93 232t-230 97z
M236 588h182q25 0 49 -5t49.5 -17t41 -37t15.5 -61q0 -74 -77 -105q34 -11 50 -34t19 -66q4 -65 5.5 -80t7.5 -29h-69q-7 11 -13 101q-2 20 -5 30.5t-12.5 24t-30.5 19.5t-54 6h-87v-181h-71v434zM407 536h-100v-151h91q16 1 22 1t25.5 4.5t29 12t18.5 23.5t9 38
q0 72 -95 72z" />
    <glyph glyph-name="macron" unicode="&#xaf;" horiz-adv-x="555" 
d="M456 735v-83h-358v83h358z" />
    <glyph glyph-name="degree" unicode="&#xb0;" horiz-adv-x="400" 
d="M343 568v-1q0 -59 -41.5 -100.5t-101.5 -41.5t-101.5 41.5t-41.5 101.5t41.5 101.5t101.5 41.5t101.5 -41.5t41.5 -101.5zM116 568v-1q0 -35 24.5 -60t59.5 -25t59.5 25.5t24.5 60.5t-24.5 60t-59.5 25t-59.5 -25t-24.5 -60z" />
    <glyph glyph-name="plusminus" unicode="&#xb1;" horiz-adv-x="600" 
d="M250 370v164h100v-164h202v-101h-202v-160h-100v160h-202v101h202zM48 -45v101h504v-101h-504z" />
    <glyph glyph-name="twosuperior" unicode="&#xb2;" horiz-adv-x="382" 
d="M345 366v-70h-310v64q106 98 158 148q60 56 60 99q0 31 -16 51t-50 20q-35 0 -53 -26t-18 -66h-80q0 63 29 102q43 61 126 61q72 0 112 -35t40 -99q0 -38 -15 -67t-49 -62q-42 -40 -124 -120h190z" />
    <glyph glyph-name="threesuperior" unicode="&#xb3;" horiz-adv-x="382" 
d="M27 432h84q2 -35 23.5 -54.5t53.5 -19.5q35 0 55.5 20.5t20.5 53.5q0 27 -20 49t-60 22h-43v61h26q33 0 53.5 18t20.5 41q0 22 -14 38t-39 17q-28 0 -41.5 -16t-15.5 -40h-82q2 67 47 97t94 30q57 0 94.5 -33.5t37.5 -81.5q0 -60 -57 -92q38 -14 61 -45t23 -69
q0 -60 -47 -100.5t-115 -40.5q-40 0 -76.5 16t-56.5 44q-25 34 -27 85z" />
    <glyph glyph-name="acute" unicode="&#xb4;" horiz-adv-x="555" 
d="M155 671l239 134l35 -76l-242 -122z" />
    <glyph glyph-name="mu" unicode="&#xb5;" horiz-adv-x="601" 
d="M64 -186v730h104v-286q0 -87 28 -127q36 -50 103 -50t102 54q35 51 35 145v264h104v-544h-100v91q-43 -102 -140 -102q-91 0 -132 70v-68v-177h-104z" />
    <glyph glyph-name="paragraph" unicode="&#xb6;" horiz-adv-x="638" 
d="M220 -113v463q-97 0 -157.5 49t-60.5 143q0 59 23.5 100.5t63 61.5t78 28t80.5 8h308v-78h-55v-775h-84v774h-112v-774h-84z" />
    <glyph glyph-name="periodcentered" unicode="&#xb7;" horiz-adv-x="297" 
d="M204 319v-130h-109v130h109z" />
    <glyph glyph-name="cedilla" unicode="&#xb8;" horiz-adv-x="555" 
d="M302 0l-27 -55q6 3 17 3q33 0 56 -22.5t23 -59.5q0 -36 -24.5 -63.5t-69.5 -27.5q-14 0 -29.5 3t-37 22.5t-26.5 53.5h54q8 -31 39 -31q17 0 28.5 11.5t11.5 31.5q0 17 -11.5 28t-27.5 11q-20 0 -33 -19l-46 21l44 93h59z" />
    <glyph glyph-name="onesuperior" unicode="&#xb9;" horiz-adv-x="382" 
d="M237 740v-444h-80v374h-86v70h166z" />
    <glyph glyph-name="ordmasculine" unicode="&#xba;" horiz-adv-x="409" 
d="M40 589v1q0 66 45 114.5t119 49.5q75 0 120 -49t45 -114q0 -67 -47 -115t-118 -48q-72 0 -118 48.5t-46 112.5zM107 590v-1q0 -40 28.5 -68.5t68.5 -28.5q39 0 68 28.5t29 70.5q0 41 -28 70t-68 29t-69 -28t-29 -72z" />
    <glyph glyph-name="guillemotright" unicode="&#xbb;" horiz-adv-x="390" 
d="M251 467l105 -187l-105 -186h-80l106 186l-106 187h80zM101 467l105 -187l-105 -186h-80l105 186l-105 187h80z" />
    <glyph glyph-name="onequarter" unicode="&#xbc;" horiz-adv-x="810" 
d="M575 740l-319 -740h-88l318 740h89zM637 341l-130 -197h130v197zM212 740v-444h-80v374h-86v70h166zM717 444v-300h47v-63h-47v-81h-81v81h-217v56l218 307h80z" />
    <glyph glyph-name="onehalf" unicode="&#xbd;" horiz-adv-x="844" 
d="M212 740v-444h-80v374h-86v70h166zM575 740l-319 -740h-88l318 740h89zM798 70v-70h-310v64q106 98 158 148q60 56 60 99q0 31 -16 51t-50 20q-35 0 -53 -26t-18 -66h-80q0 61 26 98q43 65 129 65q72 0 112 -35t40 -99q0 -38 -15 -67t-49 -62q-42 -40 -124 -120h190z" />
    <glyph glyph-name="threequarters" unicode="&#xbe;" horiz-adv-x="913" 
d="M745 344l-133 -200h133v200zM686 740l-319 -740h-88l318 740h89zM825 444v-300h47v-63h-47v-81h-81v81h-217v56l218 307h80zM41 432h83q2 -35 23.5 -54.5t54.5 -19.5q35 0 55.5 20.5t20.5 53.5q0 27 -20.5 49t-60.5 22h-42v61h25q33 0 53.5 18t20.5 41q0 22 -13.5 38
t-38.5 17q-28 0 -42 -16t-15 -40h-82q1 47 27 77.5t55.5 40t58.5 9.5q56 0 93.5 -33.5t37.5 -81.5q0 -61 -57 -92q38 -14 61 -45t23 -69q0 -60 -46.5 -100.5t-114.5 -40.5q-41 0 -77.5 16t-57.5 46q-23 33 -25 83z" />
    <glyph glyph-name="questiondown" unicode="&#xbf;" horiz-adv-x="567" 
d="M246 414v130h109v-130h-109zM245 339h110q-2 -53 -23 -96.5t-75 -95.5q-31 -31 -45.5 -47.5t-26.5 -40t-12 -47.5q0 -49 31 -81.5t82 -32.5q47 0 80 29t40 79q2 16 2 25h114v-22q-6 -102 -77 -160.5t-164 -58.5q-99 0 -163 63t-64 148q0 40 19.5 79t39 60t56.5 55
q47 45 61 77t15 67z" />
    <glyph glyph-name="Agrave" unicode="&#xc0;" horiz-adv-x="726" 
d="M204 175l-68 -175h-128l304 740h107l299 -740h-128l-70 175h-316zM488 270l-127 333l-125 -333h252zM244 965l240 -133l-32 -64l-243 122z" />
    <glyph glyph-name="Aacute" unicode="&#xc1;" horiz-adv-x="726" 
d="M204 175l-68 -175h-128l304 740h107l299 -740h-128l-70 175h-316zM488 270l-127 333l-125 -333h252zM243 837l239 133l35 -76l-242 -122z" />
    <glyph glyph-name="Acircumflex" unicode="&#xc2;" horiz-adv-x="726" 
d="M204 175l-68 -175h-128l304 740h107l299 -740h-128l-70 175h-316zM488 270l-127 333l-125 -333h252zM401 935l169 -144h-108l-99 74l-98 -74h-109l172 144h73z" />
    <glyph glyph-name="Atilde" unicode="&#xc3;" horiz-adv-x="726" 
d="M204 175l-68 -175h-128l304 740h107l299 -740h-128l-70 175h-316zM488 270l-127 333l-125 -333h252zM518 920l39 -69q-47 -39 -105 -39q-19 0 -88 16q-48 15 -79 15q-42 0 -76 -27l-39 71q44 37 103 37q30 0 88 -15q43 -15 80 -15q48 0 77 26z" />
    <glyph glyph-name="Adieresis" unicode="&#xc4;" horiz-adv-x="726" 
d="M204 175l-68 -175h-128l304 740h107l299 -740h-128l-70 175h-316zM488 270l-127 333l-125 -333h252zM312 928v-135h-101v135h101zM515 928v-135h-101v135h101z" />
    <glyph glyph-name="Aring" unicode="&#xc5;" horiz-adv-x="726" 
d="M204 175l-68 -175h-128l304 740h107l299 -740h-128l-70 175h-316zM488 270l-127 333l-125 -333h252zM363 983h1q45 0 77.5 -32t32.5 -78q0 -45 -32.5 -77.5t-78.5 -32.5t-78 32.5t-32 77.5q0 46 32 78t78 32zM363 927h-1q-21 0 -36.5 -16t-15.5 -37q0 -22 15.5 -37
t37.5 -15t37.5 15t15.5 37t-15.5 37.5t-37.5 15.5z" />
    <glyph glyph-name="AE" unicode="&#xc6;" horiz-adv-x="961" 
d="M-9 0l513 740h396v-104h-267v-210h263v-103h-263v-219h267v-104h-382v187h-259l-127 -187h-141zM311 279h207v305z" />
    <glyph glyph-name="Ccedilla" unicode="&#xc7;" horiz-adv-x="811" 
d="M433 -13l-21 -42q8 3 18 3q32 0 56 -22.5t24 -59.5q0 -36 -25 -63.5t-70 -27.5q-14 0 -29.5 3t-37 22.5t-26.5 53.5h54q10 -31 39 -31q18 0 29 11.5t12 31.5q-1 18 -12.5 28.5t-27.5 10.5q-20 0 -33 -19l-46 21l40 83q-147 17 -242.5 125.5t-95.5 255.5q0 102 48 189
t137.5 140.5t200.5 53.5q71 0 133.5 -23.5t105 -60.5t71.5 -77.5t43 -81.5h-125q-25 49 -84 93.5t-145 45.5q-115 0 -191 -82t-76 -197q0 -117 76.5 -199t191.5 -82q50 0 92.5 16t70.5 42.5t41.5 43t23.5 33.5h124q-35 -101 -128.5 -168t-215.5 -70z" />
    <glyph glyph-name="Egrave" unicode="&#xc8;" horiz-adv-x="537" 
d="M71 0v740h414v-104h-296v-210h292v-103h-292v-219h296v-104h-414zM151 978l240 -132l-31 -64l-243 121z" />
    <glyph glyph-name="Eacute" unicode="&#xc9;" horiz-adv-x="537" 
d="M71 0v740h414v-104h-296v-210h292v-103h-292v-219h296v-104h-414zM146 850l239 133l35 -75l-242 -122z" />
    <glyph glyph-name="Ecircumflex" unicode="&#xca;" horiz-adv-x="537" 
d="M71 0v740h414v-104h-296v-210h292v-103h-292v-219h296v-104h-414zM306 948l170 -144h-109l-98 74l-99 -74h-109l173 144h72z" />
    <glyph glyph-name="Edieresis" unicode="&#xcb;" horiz-adv-x="537" 
d="M71 0v740h414v-104h-296v-210h292v-103h-292v-219h296v-104h-414zM217 942v-136h-101v136h101zM420 942v-136h-101v136h101z" />
    <glyph glyph-name="Igrave" unicode="&#xcc;" horiz-adv-x="261" 
d="M71 0v740h118v-740h-118zM-9 976l239 -133l-31 -64l-243 122z" />
    <glyph glyph-name="Iacute" unicode="&#xcd;" horiz-adv-x="261" 
d="M71 0v740h118v-740h-118zM31 848l239 133l35 -76l-242 -122z" />
    <glyph glyph-name="Icircumflex" unicode="&#xce;" horiz-adv-x="261" 
d="M71 0v740h118v-740h-118zM168 944l170 -144h-109l-98 74l-99 -74h-109l173 144h72z" />
    <glyph glyph-name="Idieresis" unicode="&#xcf;" horiz-adv-x="261" 
d="M71 0v740h118v-740h-118zM79 939v-135h-101v135h101zM282 939v-135h-101v135h101z" />
    <glyph glyph-name="Eth" unicode="&#xd0;" horiz-adv-x="724" 
d="M71 428v312h232q205 0 301 -120q81 -97 81 -249q0 -167 -95.5 -269t-270.5 -102h-248v324h-71v104h71zM189 636v-208h172v-104h-172v-220h125q126 0 190 72t64 193q0 116 -60 189q-68 78 -193 78h-126z" />
    <glyph glyph-name="Ntilde" unicode="&#xd1;" horiz-adv-x="750" 
d="M182 740l384 -563l-2 563h114v-740h-108l-387 564l2 -564h-114v740h111zM529 918l40 -70q-47 -38 -105 -38q-30 0 -88 16q-48 15 -79 15q-43 0 -76 -28l-40 72q46 37 104 37q35 0 87 -16q47 -14 81 -14q48 0 76 26z" />
    <glyph glyph-name="Ograve" unicode="&#xd2;" horiz-adv-x="851" 
d="M38 365v1q0 171 113.5 279.5t273.5 108.5q165 0 276.5 -111.5t111.5 -272.5t-112 -272.5t-277 -111.5t-275.5 111.5t-110.5 267.5zM155 371v-1q0 -117 77.5 -198.5t194.5 -81.5t192.5 83.5t75.5 195.5q0 113 -75.5 197t-193.5 84t-194.5 -82t-76.5 -197zM308 978
l240 -132l-31 -64l-243 121z" />
    <glyph glyph-name="Oacute" unicode="&#xd3;" horiz-adv-x="851" 
d="M38 365v1q0 171 113.5 279.5t273.5 108.5q165 0 276.5 -111.5t111.5 -272.5t-112 -272.5t-277 -111.5t-275.5 111.5t-110.5 267.5zM155 371v-1q0 -117 77.5 -198.5t194.5 -81.5t192.5 83.5t75.5 195.5q0 113 -75.5 197t-193.5 84t-194.5 -82t-76.5 -197zM303 850l239 133
l35 -75l-242 -122z" />
    <glyph glyph-name="Ocircumflex" unicode="&#xd4;" horiz-adv-x="851" 
d="M38 365v1q0 171 113.5 279.5t273.5 108.5q165 0 276.5 -111.5t111.5 -272.5t-112 -272.5t-277 -111.5t-275.5 111.5t-110.5 267.5zM155 371v-1q0 -117 77.5 -198.5t194.5 -81.5t192.5 83.5t75.5 195.5q0 113 -75.5 197t-193.5 84t-194.5 -82t-76.5 -197zM463 946
l170 -144h-109l-98 74l-99 -74h-109l173 144h72z" />
    <glyph glyph-name="Otilde" unicode="&#xd5;" horiz-adv-x="851" 
d="M38 365v1q0 171 113.5 279.5t273.5 108.5q165 0 276.5 -111.5t111.5 -272.5t-112 -272.5t-277 -111.5t-275.5 111.5t-110.5 267.5zM155 371v-1q0 -117 77.5 -198.5t194.5 -81.5t192.5 83.5t75.5 195.5q0 113 -75.5 197t-193.5 84t-194.5 -82t-76.5 -197zM580 918l39 -70
q-46 -38 -105 -38q-28 0 -88 16q-48 15 -79 15q-41 0 -76 -28l-39 72q46 37 103 37q34 0 88 -16q47 -14 80 -14q48 0 77 26z" />
    <glyph glyph-name="Odieresis" unicode="&#xd6;" horiz-adv-x="851" 
d="M38 365v1q0 171 113.5 279.5t273.5 108.5q165 0 276.5 -111.5t111.5 -272.5t-112 -272.5t-277 -111.5t-275.5 111.5t-110.5 267.5zM155 371v-1q0 -117 77.5 -198.5t194.5 -81.5t192.5 83.5t75.5 195.5q0 113 -75.5 197t-193.5 84t-194.5 -82t-76.5 -197zM374 942v-136
h-101v136h101zM577 942v-136h-101v136h101z" />
    <glyph glyph-name="multiply" unicode="&#xd7;" horiz-adv-x="600" 
d="M125 0l-72 72l175 175l-175 173l72 72l174 -174l176 174l72 -72l-175 -173l174 -175l-72 -72l-174 175z" />
    <glyph glyph-name="Oslash" unicode="&#xd8;" horiz-adv-x="851" 
d="M616 705l50 68h117l-91 -123q51 -46 86 -117.5t35 -162.5q0 -161 -112 -272.5t-277 -111.5q-104 0 -186 47l-50 -66h-117l90 121q-53 45 -88 117t-35 165q0 164 112 274t276 110q102 0 190 -49zM231 181l319 436q-51 33 -124 33q-119 0 -195 -82.5t-76 -195.5
q0 -117 76 -191zM622 558l-319 -436q52 -32 123 -32q118 0 193.5 83.5t75.5 195.5q0 108 -73 189z" />
    <glyph glyph-name="Ugrave" unicode="&#xd9;" horiz-adv-x="656" 
d="M70 740h118v-462q0 -30 1 -46t7 -39.5t19 -43.5q37 -59 114 -59q78 0 112 57q13 20 19.5 43.5t7.5 40t1 47.5v462h117v-462q1 -79 -16.5 -134t-63.5 -93q-72 -65 -176 -65q-114 0 -179 64q-50 45 -66 97.5t-15 130.5v462zM178 971l240 -132l-31 -64l-243 121z" />
    <glyph glyph-name="Uacute" unicode="&#xda;" horiz-adv-x="656" 
d="M70 740h118v-462q0 -30 1 -46t7 -39.5t19 -43.5q37 -59 114 -59q78 0 112 57q13 20 19.5 43.5t7.5 40t1 47.5v462h117v-462q1 -79 -16.5 -134t-63.5 -93q-72 -65 -176 -65q-114 0 -179 64q-50 45 -66 97.5t-15 130.5v462zM225 843l239 133l35 -75l-242 -122z" />
    <glyph glyph-name="Ucircumflex" unicode="&#xdb;" horiz-adv-x="656" 
d="M70 740h118v-462q0 -30 1 -46t7 -39.5t19 -43.5q37 -59 114 -59q78 0 112 57q13 20 19.5 43.5t7.5 40t1 47.5v462h117v-462q1 -79 -16.5 -134t-63.5 -93q-72 -65 -176 -65q-114 0 -179 64q-50 45 -66 97.5t-15 130.5v462zM366 941l170 -144h-109l-99 74l-98 -74h-109
l173 144h72z" />
    <glyph glyph-name="Udieresis" unicode="&#xdc;" horiz-adv-x="656" 
d="M70 740h118v-462q0 -30 1 -46t7 -39.5t19 -43.5q37 -59 114 -59q78 0 112 57q13 20 19.5 43.5t7.5 40t1 47.5v462h117v-462q1 -79 -16.5 -134t-63.5 -93q-72 -65 -176 -65q-114 0 -179 64q-50 45 -66 97.5t-15 130.5v462zM277 935v-135h-101v135h101zM480 935v-135h-101
v135h101z" />
    <glyph glyph-name="Yacute" unicode="&#xdd;" horiz-adv-x="605" 
d="M244 0v263l-232 477h128l163 -366l163 366h128l-232 -477v-263h-118zM213 843l239 133l35 -75l-242 -122z" />
    <glyph glyph-name="Thorn" unicode="&#xde;" horiz-adv-x="580" 
d="M67 0v740h118v-123h93q85 0 129 -11t79 -38q38 -30 60 -79.5t22 -103.5q0 -53 -21.5 -103.5t-55.5 -77.5q-39 -31 -81.5 -43t-120.5 -12h-104v-149h-118zM185 513v-261h102q75 0 115 25q53 32 53 106q0 36 -15 64t-39 42q-40 24 -118 24h-98z" />
    <glyph glyph-name="germandbls" unicode="&#xdf;" horiz-adv-x="633" 
d="M66 0v448q0 89 10.5 135.5t42.5 83.5q34 43 85 66t104 23q97 0 157 -59t60 -144q0 -104 -89 -152q71 -13 115.5 -67.5t44.5 -124.5q0 -92 -68 -158.5t-171 -66.5q-71 1 -119.5 34.5t-67.5 95.5v-114h-104zM170 474v-273h63q5 -57 40 -88t86 -32q58 0 95.5 36.5t37.5 88.5
q0 59 -40 95q-40 35 -132 36h-48v80h31q49 0 83.5 34t34.5 86q0 57 -34 89.5t-89 32.5q-72 0 -105 -59q-23 -42 -23 -126z" />
    <glyph glyph-name="agrave" unicode="&#xe0;" horiz-adv-x="691" 
d="M622 544v-544h-104v95q-28 -54 -82 -82.5t-120 -28.5q-127 0 -203 84.5t-76 203.5q0 124 80 206t199 82q75 0 127.5 -33.5t74.5 -78.5v96h104zM141 271v-1q1 -71 50 -130t140 -59q60 0 104 29.5t65 78.5q17 36 19 81q2 44 -16 81q-21 50 -66 81t-108 31
q-83 0 -135.5 -56.5t-52.5 -135.5zM220 800l240 -133l-31 -64l-243 122z" />
    <glyph glyph-name="aacute" unicode="&#xe1;" horiz-adv-x="691" 
d="M622 544v-544h-104v95q-28 -54 -82 -82.5t-120 -28.5q-127 0 -203 84.5t-76 203.5q0 124 80 206t199 82q75 0 127.5 -33.5t74.5 -78.5v96h104zM141 271v-1q1 -71 50 -130t140 -59q60 0 104 29.5t65 78.5q17 36 19 81q2 44 -16 81q-21 50 -66 81t-108 31
q-83 0 -135.5 -56.5t-52.5 -135.5zM221 671l239 134l35 -76l-242 -122z" />
    <glyph glyph-name="acircumflex" unicode="&#xe2;" horiz-adv-x="691" 
d="M622 544v-544h-104v95q-28 -54 -82 -82.5t-120 -28.5q-127 0 -203 84.5t-76 203.5q0 124 80 206t199 82q75 0 127.5 -33.5t74.5 -78.5v96h104zM141 271v-1q1 -71 50 -130t140 -59q60 0 104 29.5t65 78.5q17 36 19 81q2 44 -16 81q-21 50 -66 81t-108 31
q-83 0 -135.5 -56.5t-52.5 -135.5zM375 770l170 -144h-109l-98 74l-99 -74h-109l173 144h72z" />
    <glyph glyph-name="atilde" unicode="&#xe3;" horiz-adv-x="691" 
d="M622 544v-544h-104v95q-28 -54 -82 -82.5t-120 -28.5q-127 0 -203 84.5t-76 203.5q0 124 80 206t199 82q75 0 127.5 -33.5t74.5 -78.5v96h104zM141 271v-1q1 -71 50 -130t140 -59q60 0 104 29.5t65 78.5q17 36 19 81q2 44 -16 81q-21 50 -66 81t-108 31
q-83 0 -135.5 -56.5t-52.5 -135.5zM494 742l40 -70q-47 -38 -105 -38q-30 0 -88 16q-54 15 -79 15q-43 0 -76 -28l-39 71q45 38 103 38q34 0 88 -16q49 -15 80 -15q47 0 76 27z" />
    <glyph glyph-name="adieresis" unicode="&#xe4;" horiz-adv-x="691" 
d="M622 544v-544h-104v95q-28 -54 -82 -82.5t-120 -28.5q-127 0 -203 84.5t-76 203.5q0 124 80 206t199 82q75 0 127.5 -33.5t74.5 -78.5v96h104zM141 271v-1q1 -71 50 -130t140 -59q60 0 104 29.5t65 78.5q17 36 19 81q2 44 -16 81q-21 50 -66 81t-108 31
q-83 0 -135.5 -56.5t-52.5 -135.5zM282 763v-135h-101v135h101zM485 763v-135h-101v135h101z" />
    <glyph glyph-name="aring" unicode="&#xe5;" horiz-adv-x="691" 
d="M622 544v-544h-104v95q-28 -54 -82 -82.5t-120 -28.5q-127 0 -203 84.5t-76 203.5q0 124 80 206t199 82q75 0 127.5 -33.5t74.5 -78.5v96h104zM141 271v-1q1 -71 50 -130t140 -59q60 0 104 29.5t65 78.5q17 36 19 81q2 44 -16 81q-21 50 -66 81t-108 31
q-83 0 -135.5 -56.5t-52.5 -135.5zM330 812h1q45 0 77.5 -32.5t32.5 -78.5q0 -45 -32.5 -77.5t-78.5 -32.5t-78.5 32.5t-32.5 77.5q0 46 32.5 78.5t78.5 32.5zM330 755h-1q-22 0 -37 -15.5t-15 -37.5t15.5 -37t37.5 -15t37.5 15t15.5 37t-15.5 37.5t-37.5 15.5z" />
    <glyph glyph-name="ae" unicode="&#xe6;" horiz-adv-x="1119" 
d="M1081 242h-462q6 -63 40.5 -103.5t70 -53t70.5 -12.5q95 0 159 92h107q-35 -79 -101.5 -130t-156.5 -51q-66 0 -117 31.5t-78 87.5v-103h-96v103q-23 -53 -77.5 -86t-121.5 -33q-69 0 -124.5 27.5t-88.5 70.5t-50.5 92t-17.5 97q0 123 80 206t202 83q68 0 120.5 -31
t77.5 -84v99h96v-98q62 114 192 114q116 0 196 -83q91 -93 80 -235zM141 274v-1q0 -83 54.5 -137.5t136.5 -54.5q77 0 131 56.5t54 133.5q0 80 -52 135q-55 57 -136 57q-85 0 -136.5 -58.5t-51.5 -130.5zM621 314h358q-16 78 -63.5 117.5t-114.5 39.5q-81 0 -133 -56
q-35 -38 -47 -101z" />
    <glyph glyph-name="ccedilla" unicode="&#xe7;" horiz-adv-x="637" 
d="M335 -15l-20 -40q7 3 18 3q32 0 56 -22.5t24 -59.5q0 -36 -25 -63.5t-70 -27.5q-14 0 -29.5 3t-37 22.5t-26.5 53.5h54q10 -31 39 -31q18 0 29 11.5t12 31.5q-1 18 -12.5 28.5t-27.5 10.5q-20 0 -33 -19l-46 21l38 82q-105 16 -173 95t-68 189q0 121 82 204t204 83
q99 0 177.5 -57t103.5 -154h-107q-21 52 -67 82t-103 30q-77 0 -133 -53q-53 -51 -53 -136q0 -83 53.5 -137t132.5 -54q64 1 108 33t62 77h107q-25 -88 -97.5 -145t-171.5 -61z" />
    <glyph glyph-name="egrave" unicode="&#xe8;" horiz-adv-x="634" 
d="M600 239h-465q4 -77 59.5 -121.5t123.5 -44.5q109 0 157 92h108q-38 -88 -110 -135q-68 -46 -155 -46q-128 0 -208 86.5t-80 200.5q0 119 82.5 204t204.5 85q119 0 201 -80q96 -98 82 -241zM137 320h360q-4 58 -55.5 105t-124.5 46q-76 0 -126 -46t-54 -105zM200 800
l240 -133l-32 -64l-242 122z" />
    <glyph glyph-name="eacute" unicode="&#xe9;" horiz-adv-x="634" 
d="M600 239h-465q4 -77 59.5 -121.5t123.5 -44.5q109 0 157 92h108q-38 -88 -110 -135q-68 -46 -155 -46q-128 0 -208 86.5t-80 200.5q0 119 82.5 204t204.5 85q119 0 201 -80q96 -98 82 -241zM137 320h360q-4 58 -55.5 105t-124.5 46q-76 0 -126 -46t-54 -105zM193 671
l238 134l36 -76l-243 -122z" />
    <glyph glyph-name="ecircumflex" unicode="&#xea;" horiz-adv-x="634" 
d="M600 239h-465q4 -77 59.5 -121.5t123.5 -44.5q109 0 157 92h108q-38 -88 -110 -135q-68 -46 -155 -46q-128 0 -208 86.5t-80 200.5q0 119 82.5 204t204.5 85q119 0 201 -80q96 -98 82 -241zM137 320h360q-4 58 -55.5 105t-124.5 46q-76 0 -126 -46t-54 -105zM354 770
l170 -144h-108l-99 74l-98 -74h-109l172 144h72z" />
    <glyph glyph-name="edieresis" unicode="&#xeb;" horiz-adv-x="634" 
d="M600 239h-465q4 -77 59.5 -121.5t123.5 -44.5q109 0 157 92h108q-38 -88 -110 -135q-68 -46 -155 -46q-128 0 -208 86.5t-80 200.5q0 119 82.5 204t204.5 85q119 0 201 -80q96 -98 82 -241zM137 320h360q-4 58 -55.5 105t-124.5 46q-76 0 -126 -46t-54 -105zM264 763
v-135h-101v135h101zM467 763v-135h-101v135h101z" />
    <glyph glyph-name="igrave" unicode="&#xec;" horiz-adv-x="240" 
d="M68 0v544h104v-544h-104zM-18 800l240 -133l-31 -64l-243 122z" />
    <glyph glyph-name="iacute" unicode="&#xed;" horiz-adv-x="240" 
d="M68 0v544h104v-544h-104zM17 671l239 134l35 -76l-242 -122z" />
    <glyph glyph-name="icircumflex" unicode="&#xee;" horiz-adv-x="240" 
d="M68 0v544h104v-544h-104zM158 770l170 -144h-109l-98 74l-98 -74h-110l173 144h72z" />
    <glyph glyph-name="idieresis" unicode="&#xef;" horiz-adv-x="240" 
d="M68 0v544h104v-544h-104zM69 763v-135h-100v135h100zM272 763v-135h-101v135h101z" />
    <glyph glyph-name="eth" unicode="&#xf0;" horiz-adv-x="655" 
d="M326 617l-230 -65v72l150 42q-41 21 -127 51l109 32q62 -21 128 -57l206 57v-72l-130 -36q88 -56 139 -148q47 -88 47 -200q0 -136 -83.5 -221.5t-207.5 -86.5q-121 0 -205 78t-85 208q1 129 79 206t188 78q94 0 153 -64q-12 26 -34 49q-44 49 -97 77zM141 273v-1
q0 -79 51.5 -134.5t135.5 -55.5t135 57t51 134q0 75 -52 132.5t-131 57.5q-87 0 -138.5 -55.5t-51.5 -134.5z" />
    <glyph glyph-name="ntilde" unicode="&#xf1;" horiz-adv-x="636" 
d="M68 0v544h98v-84q21 45 68 73t116 27q62 -1 107 -22t68.5 -57.5t34 -76t10.5 -85.5v-319h-105v295q0 79 -34 123.5t-110 43.5q-74 -1 -111.5 -43.5t-37.5 -115.5v-303h-104zM473 742l39 -70q-47 -38 -105 -38q-30 0 -88 16q-54 15 -79 15q-43 0 -76 -28l-39 71
q45 38 103 38q34 0 88 -16q49 -15 80 -15q47 0 77 27z" />
    <glyph glyph-name="ograve" unicode="&#xf2;" horiz-adv-x="655" 
d="M37 272v1q0 115 79.5 201t210.5 86t210.5 -86t79.5 -202t-79.5 -201.5t-210.5 -85.5t-210.5 85.5t-79.5 201.5zM141 272v-1q0 -81 54 -135t132 -54t132 54.5t54 135.5t-54 135.5t-132 54.5t-132 -54.5t-54 -135.5zM210 800l240 -133l-31 -64l-243 122z" />
    <glyph glyph-name="oacute" unicode="&#xf3;" horiz-adv-x="655" 
d="M37 272v1q0 115 79.5 201t210.5 86t210.5 -86t79.5 -202t-79.5 -201.5t-210.5 -85.5t-210.5 85.5t-79.5 201.5zM141 272v-1q0 -81 54 -135t132 -54t132 54.5t54 135.5t-54 135.5t-132 54.5t-132 -54.5t-54 -135.5zM203 671l239 134l35 -76l-242 -122z" />
    <glyph glyph-name="ocircumflex" unicode="&#xf4;" horiz-adv-x="655" 
d="M37 272v1q0 115 79.5 201t210.5 86t210.5 -86t79.5 -202t-79.5 -201.5t-210.5 -85.5t-210.5 85.5t-79.5 201.5zM141 272v-1q0 -81 54 -135t132 -54t132 54.5t54 135.5t-54 135.5t-132 54.5t-132 -54.5t-54 -135.5zM365 770l170 -144h-109l-98 74l-98 -74h-110l173 144h72
z" />
    <glyph glyph-name="otilde" unicode="&#xf5;" horiz-adv-x="655" 
d="M37 272v1q0 115 79.5 201t210.5 86t210.5 -86t79.5 -202t-79.5 -201.5t-210.5 -85.5t-210.5 85.5t-79.5 201.5zM141 272v-1q0 -81 54 -135t132 -54t132 54.5t54 135.5t-54 135.5t-132 54.5t-132 -54.5t-54 -135.5zM482 742l39 -70q-46 -38 -105 -38q-29 0 -87 16
q-56 15 -79 15q-42 0 -77 -28l-39 71q45 38 103 38q36 0 88 -16q51 -15 80 -15q47 0 77 27z" />
    <glyph glyph-name="odieresis" unicode="&#xf6;" horiz-adv-x="655" 
d="M37 272v1q0 115 79.5 201t210.5 86t210.5 -86t79.5 -202t-79.5 -201.5t-210.5 -85.5t-210.5 85.5t-79.5 201.5zM141 272v-1q0 -81 54 -135t132 -54t132 54.5t54 135.5t-54 135.5t-132 54.5t-132 -54.5t-54 -135.5zM276 763v-135h-100v135h100zM479 763v-135h-100v135h100
z" />
    <glyph glyph-name="divide" unicode="&#xf7;" horiz-adv-x="600" 
d="M350 535v-125h-100v125h100zM49 201v101h502v-101h-502zM350 93v-124h-100v124h100z" />
    <glyph glyph-name="oslash" unicode="&#xf8;" horiz-adv-x="655" 
d="M499 578h106l-73 -100q85 -85 85 -206q0 -117 -79.5 -202.5t-209.5 -85.5q-78 0 -136 33l-37 -51h-106l73 99q-85 80 -85 206q0 117 79.5 203t211.5 86q81 0 135 -33zM189 150l215 293q-33 19 -76 19q-80 0 -133.5 -54.5t-53.5 -135.5q0 -77 48 -122zM466 392l-214 -291
q35 -20 75 -20q82 0 134 55.5t52 135.5q0 75 -47 120z" />
    <glyph glyph-name="ugrave" unicode="&#xf9;" horiz-adv-x="637" 
d="M569 544v-544h-98v84q-21 -45 -68 -73t-116 -27q-63 0 -108 21.5t-68 57.5t-33.5 76t-10.5 86v319h104v-295q0 -168 145 -168q74 1 111.5 43.5t37.5 115.5v304h104zM169 800l240 -133l-32 -64l-243 122z" />
    <glyph glyph-name="uacute" unicode="&#xfa;" horiz-adv-x="637" 
d="M569 544v-544h-98v84q-21 -45 -68 -73t-116 -27q-63 0 -108 21.5t-68 57.5t-33.5 76t-10.5 86v319h104v-295q0 -168 145 -168q74 1 111.5 43.5t37.5 115.5v304h104zM216 671l238 134l36 -76l-243 -122z" />
    <glyph glyph-name="ucircumflex" unicode="&#xfb;" horiz-adv-x="637" 
d="M569 544v-544h-98v84q-21 -45 -68 -73t-116 -27q-63 0 -108 21.5t-68 57.5t-33.5 76t-10.5 86v319h104v-295q0 -168 145 -168q74 1 111.5 43.5t37.5 115.5v304h104zM356 770l170 -144h-109l-98 74l-98 -74h-110l173 144h72z" />
    <glyph glyph-name="udieresis" unicode="&#xfc;" horiz-adv-x="637" 
d="M569 544v-544h-98v84q-21 -45 -68 -73t-116 -27q-63 0 -108 21.5t-68 57.5t-33.5 76t-10.5 86v319h104v-295q0 -168 145 -168q74 1 111.5 43.5t37.5 115.5v304h104zM267 763v-135h-100v135h100zM470 763v-135h-100v135h100z" />
    <glyph glyph-name="yacute" unicode="&#xfd;" horiz-adv-x="532" 
d="M123 -198l90 214l-208 528h112l150 -398l152 398h112l-297 -742h-111zM177 671l238 134l36 -76l-243 -122z" />
    <glyph glyph-name="thorn" unicode="&#xfe;" horiz-adv-x="689" 
d="M68 -198v938h104v-220v-67q31 53 86.5 80t117.5 27q65 0 119 -25.5t87.5 -67t51.5 -93t18 -105.5q0 -121 -78.5 -203t-196.5 -82q-74 0 -126.5 31t-78.5 75v-69v-219h-104zM548 272v1q0 78 -53 133.5t-137 55.5q-82 0 -136 -56q-55 -57 -55 -136q0 -72 53 -130
q56 -59 138 -59q83 0 136.5 55.5t53.5 135.5z" />
    <glyph glyph-name="ydieresis" unicode="&#xff;" horiz-adv-x="532" 
d="M123 -198l90 214l-208 528h112l150 -398l152 398h112l-297 -742h-111zM215 763v-135h-101v135h101zM418 763v-135h-101v135h101z" />
    <glyph glyph-name="dotlessi" unicode="&#x131;" horiz-adv-x="240" 
d="M68 0v544h104v-544h-104z" />
    <glyph glyph-name="Lslash" unicode="&#x141;" horiz-adv-x="458" 
d="M4 213v119l72 53v355h118v-270l130 94v-119l-130 -96v-245h261v-104h-379v266z" />
    <glyph glyph-name="lslash" unicode="&#x142;" horiz-adv-x="287" 
d="M90 296l-69 -48v109l69 47v336h104v-270l80 55v-107l-80 -56v-362h-104v296z" />
    <glyph glyph-name="OE" unicode="&#x152;" horiz-adv-x="1127" 
d="M804 636v-210h263v-103h-263v-219h268v-104h-382v65v65q-45 -69 -117.5 -106.5t-152.5 -37.5q-162 0 -272 110.5t-110 272.5q0 160 107.5 272.5t275.5 112.5q98 0 168 -41t101 -103v66v64h382v-104h-268zM155 369v-1q0 -111 73.5 -194.5t192.5 -83.5t193.5 83t74.5 199
q-2 118 -76.5 198t-190.5 80q-118 0 -192.5 -82t-74.5 -199z" />
    <glyph glyph-name="oe" unicode="&#x153;" horiz-adv-x="1112" 
d="M1074 243h-462q5 -79 56.5 -124.5t122.5 -45.5q54 0 95.5 24.5t62.5 67.5h108q-35 -79 -92 -123q-77 -58 -171 -58q-90 0 -148.5 41.5t-84.5 98.5q-30 -64 -91 -102t-146 -38q-90 0 -157.5 45.5t-98.5 109.5t-31 132q0 120 81.5 204.5t210.5 84.5q77 0 140 -39t92 -100
q25 52 85 94.5t146 42.5q120 0 202 -85q45 -46 66.5 -107t13.5 -123zM141 272v-1q0 -80 54 -135t133 -55q81 0 132.5 58.5t51.5 131.5q0 74 -52 133t-132 59q-77 0 -132 -53.5t-55 -137.5zM616 315h354q-8 59 -55.5 106.5t-121.5 47.5q-68 0 -118 -43t-59 -111z" />
    <glyph glyph-name="Scaron" unicode="&#x160;" horiz-adv-x="548" 
d="M34 219h117q3 -39 17 -67t34.5 -41.5t38.5 -19t35 -5.5q50 0 86.5 34.5t36.5 83.5q0 27 -10 47t-31.5 34.5t-44 24.5t-59.5 23l-10.5 3.5t-9.5 3.5q-26 8 -43 15t-47 24t-48.5 36.5t-33.5 52.5t-15 73q-1 98 69 155.5t164 57.5q38 0 74 -11t69 -33.5t55 -64t25 -95.5
h-116q-4 19 -9.5 33.5t-17 32.5t-33 28t-51.5 10q-46 0 -79 -29t-33 -75q0 -26 8.5 -43.5t33 -33t47.5 -25t74 -28.5q7 -3 11 -4q41 -17 68 -32.5t54.5 -39.5t41.5 -57.5t14 -76.5q0 -95 -63 -159.5t-176 -64.5q-110 0 -176 63t-67 170zM67 938h109l98 -74l98 74h109
l-171 -144h-73z" />
    <glyph glyph-name="scaron" unicode="&#x161;" horiz-adv-x="466" 
d="M411 402h-103q0 33 -20.5 53.5t-58.5 19.5q-37 0 -58 -20.5t-20 -49.5q1 -30 26 -48t73 -31q25 -7 36.5 -10.5t34 -11.5t34 -15.5t27.5 -20t24 -27t14 -35t7 -44.5q1 -78 -55 -128t-139 -50q-46 0 -88.5 16.5t-75 57.5t-34.5 99h103q3 -45 32 -66.5t64 -21.5
q38 0 63.5 23.5t25.5 57.5q-1 38 -30 58t-109 46q-65 20 -100.5 52t-36.5 89q0 75 53 120t130 45q30 0 59 -8t56 -25t45 -49.5t21 -75.5zM26 764h109l98 -74l98 74h109l-171 -144h-73z" />
    <glyph glyph-name="Ydieresis" unicode="&#x178;" horiz-adv-x="605" 
d="M244 0v263l-232 477h128l163 -366l163 366h128l-232 -477v-263h-118zM251 935v-135h-100v135h100zM454 935v-135h-100v135h100z" />
    <glyph glyph-name="Zcaron" unicode="&#x17d;" horiz-adv-x="499" 
d="M478 648l-317 -544h326v-104h-469v76l327 560h-333v104h466v-92zM40 932h109l99 -74l98 74h109l-172 -143h-73z" />
    <glyph glyph-name="zcaron" unicode="&#x17e;" horiz-adv-x="427" 
d="M14 0v74l276 389h-268v81h383v-82l-267 -381h275v-81h-399zM15 761h109l98 -74l98 74h109l-171 -143h-73z" />
    <glyph glyph-name="florin" unicode="&#x192;" 
d="M387 516h103v-81h-117l-72 -397q-20 -116 -58 -166q-61 -80 -176 -80q-35 0 -57 7l17 95q24 -6 34 -6q36 0 60.5 10.5t38 32.5t19.5 41.5t12 50.5l74 412h-104v81h118q19 129 77 184q56 54 141 54q18 0 36 -3l-15 -85q-17 0 -27 -1q-43 -6 -65 -34q-25 -27 -39 -115z" />
    <glyph glyph-name="circumflex" unicode="&#x2c6;" horiz-adv-x="555" 
d="M315 770l170 -144h-109l-98 74l-99 -74h-109l173 144h72z" />
    <glyph glyph-name="caron" unicode="&#x2c7;" horiz-adv-x="555" 
d="M70 764h109l98 -74l99 74h109l-172 -144h-73z" />
    <glyph glyph-name="uni02C9" unicode="&#x2c9;" horiz-adv-x="555" 
d="M456 735v-83h-358v83h358z" />
    <glyph glyph-name="breve" unicode="&#x2d8;" horiz-adv-x="555" 
d="M78 749h85q19 -22 42 -32q28 -11 75 -11q84 0 112 43h85q-10 -55 -64.5 -88t-135.5 -33q-73 0 -128.5 31t-70.5 90z" />
    <glyph glyph-name="dotaccent" unicode="&#x2d9;" horiz-adv-x="555" 
d="M328 763v-135h-101v135h101z" />
    <glyph glyph-name="ring" unicode="&#x2da;" horiz-adv-x="555" 
d="M277 812h1q45 0 77.5 -32.5t32.5 -78.5q0 -45 -32.5 -77.5t-78.5 -32.5t-78 32.5t-32 77.5q0 46 32 78.5t78 32.5zM277 755h-1q-22 0 -37 -15.5t-15 -37.5t15.5 -37t37.5 -15t37.5 15t15.5 37t-15.5 37.5t-37.5 15.5z" />
    <glyph glyph-name="ogonek" unicode="&#x2db;" horiz-adv-x="555" 
d="M270 0h59q-3 -2 -10.5 -7.5t-10.5 -7.5t-9.5 -7t-9.5 -7.5t-8 -7.5t-7.5 -8.5t-6 -8.5t-5 -9.5t-2.5 -10t-1 -11.5q0 -24 18 -41t42 -17q18 0 51 12v-60q-41 -15 -73 -15q-52 0 -82 27.5t-30 69.5q0 34 21 58t64 51z" />
    <glyph glyph-name="tilde" unicode="&#x2dc;" horiz-adv-x="555" 
d="M432 742l39 -70q-46 -38 -105 -38q-28 0 -88 16q-54 15 -79 15q-41 0 -76 -28l-39 71q45 38 103 38q34 0 88 -16q51 -15 80 -15q47 0 77 27z" />
    <glyph glyph-name="hungarumlaut" unicode="&#x2dd;" horiz-adv-x="555" 
d="M95 660l166 146l59 -62l-173 -138zM290 660l166 146l60 -62l-174 -138z" />
    <glyph glyph-name="uni03A9" unicode="&#x3a9;" horiz-adv-x="756" 
d="M197 87v3q-59 54 -97.5 134.5t-38.5 179.5q0 149 90.5 248.5t229.5 99.5q94 0 167 -50.5t109 -127.5t36 -164q0 -102 -40 -186t-98 -134v-3h153v-87h-266v64q61 40 102.5 123t41.5 201q0 70 -22.5 131.5t-71 102.5t-112.5 41q-95 0 -153.5 -79t-58.5 -200
q0 -111 42.5 -197t102.5 -123v-64h-267v87h151z" />
    <glyph glyph-name="uni03BC" unicode="&#x3bc;" horiz-adv-x="601" 
d="M64 -186v730h104v-286q0 -87 28 -127q36 -50 103 -50t102 54q35 51 35 145v264h104v-544h-100v91q-43 -102 -140 -102q-91 0 -132 70v-68v-177h-104z" />
    <glyph glyph-name="pi" unicode="&#x3c0;" horiz-adv-x="620" 
d="M593 463h-80v-306q0 -99 15 -157h-103q-18 33 -18 150v313h-170q-4 -107 -25 -248.5t-48 -214.5h-103q28 86 48.5 224t22.5 239q-72 0 -111 -12l-14 70q45 32 163 32h432z" />
    <glyph glyph-name="endash" unicode="&#x2013;" horiz-adv-x="500" 
d="M35 335h430v-103h-430v103z" />
    <glyph glyph-name="emdash" unicode="&#x2014;" horiz-adv-x="1000" 
d="M35 335h930v-103h-930v103z" />
    <glyph glyph-name="quoteleft" unicode="&#x2018;" horiz-adv-x="297" 
d="M181 740l75 -207h-81l-87 207h93z" />
    <glyph glyph-name="quoteright" unicode="&#x2019;" horiz-adv-x="297" 
d="M41 533l75 207h94l-88 -207h-81z" />
    <glyph glyph-name="quotesinglbase" unicode="&#x201a;" horiz-adv-x="297" 
d="M41 -89l75 207h94l-88 -207h-81z" />
    <glyph glyph-name="quotedblleft" unicode="&#x201c;" horiz-adv-x="472" 
d="M202 740l75 -207h-81l-87 207h93zM344 740l75 -207h-81l-87 207h93z" />
    <glyph glyph-name="quotedblright" unicode="&#x201d;" horiz-adv-x="472" 
d="M53 533l75 207h93l-87 -207h-81zM195 533l75 207h93l-87 -207h-81z" />
    <glyph glyph-name="quotedblbase" unicode="&#x201e;" horiz-adv-x="472" 
d="M53 -89l75 207h93l-87 -207h-81zM195 -89l75 207h93l-87 -207h-81z" />
    <glyph glyph-name="dagger" unicode="&#x2020;" horiz-adv-x="627" 
d="M366 740v-194h170v-90h-170v-635h-105v635h-170v90h170v194h105z" />
    <glyph glyph-name="daggerdbl" unicode="&#x2021;" horiz-adv-x="627" 
d="M366 740v-164h170v-91h-170v-363h170v-91h-170v-210h-104v210h-171v91h171v363h-171v91h171v164h104z" />
    <glyph glyph-name="bullet" unicode="&#x2022;" horiz-adv-x="576" 
d="M289 499h1q50 0 85.5 -36.5t35.5 -87.5t-36 -87t-87 -36t-87 36t-36 87t35.5 87.5t88.5 36.5z" />
    <glyph glyph-name="ellipsis" unicode="&#x2026;" horiz-adv-x="1000" 
d="M113 0v131h109v-131h-109zM446 0v131h109v-131h-109zM779 0v131h109v-131h-109z" />
    <glyph glyph-name="perthousand" unicode="&#x2030;" horiz-adv-x="1182" 
d="M29 581v1q0 72 49.5 122t122.5 50t123 -50t50 -123t-50 -122.5t-123 -49.5q-72 0 -122 49.5t-50 122.5zM103 581v-1q0 -42 28 -70.5t70 -28.5t70.5 29t28.5 72t-28 71.5t-71 28.5t-70.5 -28.5t-27.5 -72.5zM420 159v1q0 72 50 122t123 50q72 0 122 -50t50 -123t-50 -123
t-122 -50q-73 0 -123 49.5t-50 123.5zM494 159v-1q0 -42 28 -71t71 -29q42 0 70 29t28 72t-28 71.5t-70 28.5q-43 0 -71 -28.5t-28 -71.5zM809 159v1q0 72 49.5 122t122.5 50t123 -50t50 -123t-50.5 -123t-122.5 -50t-122 49.5t-50 123.5zM882 159v-1q0 -42 28.5 -71
t70.5 -29q43 0 71 28.5t28 72.5q0 43 -28 71.5t-71 28.5t-71 -28.5t-28 -71.5zM621 740l-374 -740h-78l374 740h78z" />
    <glyph glyph-name="guilsinglleft" unicode="&#x2039;" horiz-adv-x="234" 
d="M27 280l105 187h80l-105 -187l105 -186h-80z" />
    <glyph glyph-name="guilsinglright" unicode="&#x203a;" horiz-adv-x="234" 
d="M102 467l105 -187l-105 -186h-80l105 186l-105 187h80z" />
    <glyph glyph-name="fraction" unicode="&#x2044;" horiz-adv-x="155" 
d="M-127 0l319 740h89l-319 -740h-89z" />
    <glyph glyph-name="Euro" unicode="&#x20ac;" horiz-adv-x="555" 
d="M414 343l-14 -76h-201q20 -186 131 -186q19 0 34 3.5t32.5 14.5t30 35.5t18.5 62.5h99q-8 -112 -68.5 -161.5t-152.5 -49.5q-202 0 -232 281h-90l14 76h71v28q0 7 0.5 19t0.5 18h-86l14 76h77q32 272 235 272q44 0 80.5 -14t59 -35t39.5 -49t24.5 -53t10.5 -50h-97
q-10 51 -41 78.5t-75 27.5q-57 0 -87.5 -43.5t-41.5 -133.5h240l-14 -76h-232v-37v-28h221z" />
    <glyph glyph-name="afii61289" unicode="&#x2113;" horiz-adv-x="528" 
d="M460 175l46 -44q-73 -141 -208 -141q-87 0 -132 52.5t-51 133.5q0 8 -1 12q-10 -7 -29 -23t-28 -23l-29 59q72 60 85 73v278q0 134 50 198t126 64q69 0 104.5 -50.5t35.5 -129.5q0 -171 -214 -378v-40q1 -70 30.5 -105.5t75.5 -35.5q43 0 79 29t60 71zM215 557v-201
q144 162 144 280q0 101 -67 101q-31 0 -54 -43t-23 -137z" />
    <glyph glyph-name="trademark" unicode="&#x2122;" horiz-adv-x="990" 
d="M369 296v444h104l143 -333l141 333h104v-444h-77v348l-142 -348h-54l-142 346v-346h-77zM121 296v375h-105v69h293v-69h-106v-375h-82z" />
    <glyph glyph-name="Omega" unicode="&#x2126;" horiz-adv-x="756" 
d="M197 87v3q-59 54 -97.5 134.5t-38.5 179.5q0 149 90.5 248.5t229.5 99.5q94 0 167 -50.5t109 -127.5t36 -164q0 -102 -40 -186t-98 -134v-3h153v-87h-266v64q61 40 102.5 123t41.5 201q0 70 -22.5 131.5t-71 102.5t-112.5 41q-95 0 -153.5 -79t-58.5 -200
q0 -111 42.5 -197t102.5 -123v-64h-267v87h151z" />
    <glyph glyph-name="estimated" unicode="&#x212e;" horiz-adv-x="926" 
d="M889 359h-691q-5 0 -5 -4v-209q0 -14 9 -24q111 -114 261 -114q81 0 152 34t123 93h61q-58 -68 -147 -108t-190 -40q-176 0 -301 112t-125 271t125 271.5t301 112.5q177 0 302 -112.5t125 -271.5v-11zM732 387v210q0 15 -10 25q-111 109 -259 109q-149 0 -260 -113
q-10 -10 -10 -26v-205q0 -7 5 -7h530q4 0 4 7z" />
    <glyph glyph-name="partialdiff" unicode="&#x2202;" horiz-adv-x="593" 
d="M109 693l-33 79q78 60 185 60q117 0 198 -105t81 -297q0 -197 -75 -318t-211 -121q-101 0 -156.5 75t-55.5 172q0 122 66 198t161 76q61 0 105 -30.5t61 -62.5h1q1 10 1 41q0 121 -54 202.5t-135 81.5q-80 0 -139 -51zM264 79h1q64 0 106.5 73t53.5 172q-12 37 -49 70
t-87 33q-59 0 -100.5 -56.5t-41.5 -134.5q0 -68 32.5 -112.5t84.5 -44.5z" />
    <glyph glyph-name="Delta" unicode="&#x2206;" horiz-adv-x="690" 
d="M31 0v66l254 692h125l249 -691v-67h-628zM139 86h406l-135 360q-7 25 -32.5 96.5t-32.5 97.5h-4q-5 -22 -28.5 -89t-30.5 -89z" />
    <glyph glyph-name="product" unicode="&#x220f;" horiz-adv-x="751" 
d="M724 644h-112v-746h-105v746h-264v-746h-104v746h-112v96h697v-96z" />
    <glyph glyph-name="summation" unicode="&#x2211;" horiz-adv-x="588" 
d="M566 -102h-542v69l271 351l-260 348v74h514v-91h-370v-3l236 -311l-258 -335v-3h409v-99z" />
    <glyph glyph-name="minus" unicode="&#x2212;" horiz-adv-x="600" 
d="M49 201v101h502v-101h-502z" />
    <glyph glyph-name="uni2215" unicode="&#x2215;" horiz-adv-x="155" 
d="M-127 0l319 740h89l-319 -740h-89z" />
    <glyph glyph-name="uni2219" unicode="&#x2219;" horiz-adv-x="297" 
d="M204 319v-130h-109v130h109z" />
    <glyph glyph-name="radical" unicode="&#x221a;" horiz-adv-x="616" 
d="M620 884l-236 -1037h-88l-164 478l-78 -31l-19 62l162 64l122 -367q3 -15 10 -43.5t10 -39.5l2 -1q3 26 15 87l189 828h75z" />
    <glyph glyph-name="infinity" unicode="&#x221e;" horiz-adv-x="824" 
d="M770 307v-1q0 -79 -49 -127.5t-116 -48.5q-48 0 -93 29t-99 95q-52 -61 -96 -92.5t-102 -31.5q-67 0 -115 49t-48 123q0 76 48.5 125t122.5 49q55 0 100.5 -32t92.5 -90q58 63 84 83q53 39 112 39q70 -1 114 -47.5t44 -121.5zM223 192h1q12 0 24 3t21 6.5t21.5 12.5
t18.5 13.5t19.5 17.5t17 16.5t18 19.5t15.5 18q-22 28 -28.5 35.5t-26.5 29.5t-32.5 29t-32.5 15t-41 8q-47 0 -74.5 -33t-27.5 -83q0 -45 30.5 -76.5t76.5 -31.5zM605 416h-1q-19 0 -38 -7t-37 -22t-29 -25.5t-29 -31t-23 -25.5q54 -63 87.5 -88t72.5 -25q45 0 72 33.5
t27 75.5q0 52 -28.5 83.5t-73.5 31.5z" />
    <glyph glyph-name="integral" unicode="&#x222b;" horiz-adv-x="398" 
d="M377 896l-13 -73q-20 10 -38 10q-34 0 -54 -26q-32 -41 -32 -184q0 -83 7.5 -256t7.5 -265q0 -145 -42 -213q-37 -66 -120 -66q-43 0 -75 18l15 76q24 -12 47 -12q30 0 48 22q32 45 32 174q0 93 -7.5 269.5t-7.5 262.5q0 90 14 144t46 88q43 44 111 44q37 0 61 -13z" />
    <glyph glyph-name="approxequal" unicode="&#x2248;" 
d="M504 467l39 -36q-53 -105 -139 -105q-30 0 -55 9.5t-67 34.5q-61 36 -95 36q-23 0 -42.5 -12.5t-31.5 -26.5t-28 -39l-41 36q25 47 64.5 75.5t85.5 28.5q15 0 28.5 -2.5t27 -8t21 -9.5t21 -11.5t17.5 -9.5q5 -3 20.5 -11.5t20.5 -11t16 -7.5t20 -6.5t19 -1.5
q30 0 52.5 19t46.5 59zM504 278l39 -36q-54 -104 -140 -104q-29 0 -53.5 9.5t-67.5 33.5q-59 37 -95 37q-33 0 -55 -20t-47 -59l-41 36q25 48 64.5 76.5t85.5 28.5q15 0 28.5 -2.5t27 -8t21.5 -9.5t21 -11.5t17 -9.5t19 -10.5t20 -11.5t16.5 -8t21 -6.5t20.5 -1.5
q30 0 51.5 18.5t46.5 58.5z" />
    <glyph glyph-name="notequal" unicode="&#x2260;" 
d="M425 538l-44 -99h155v-64h-180l-67 -149h247v-64h-272l-55 -123l-51 22l46 101h-152v64h177l67 149h-244v64h269l54 121z" />
    <glyph glyph-name="lessequal" unicode="&#x2264;" 
d="M534 103l-476 238v69l475 237v-76l-409 -194v-2l410 -196v-76zM537 -3h-484v65h484v-65z" />
    <glyph glyph-name="greaterequal" unicode="&#x2265;" 
d="M60 647l475 -238v-68l-475 -238v76l409 195v2l-409 195v76zM536 -3h-482v65h482v-65z" />
    <glyph glyph-name="lozenge" unicode="&#x25ca;" horiz-adv-x="616" 
d="M560 369l-212 -419h-85l-207 419l211 420h85zM466 367l-137 276q-15 38 -20 59h-3q-6 -29 -20 -59l-136 -271l137 -279q13 -30 19 -57h4q7 32 18 56z" />
    </font>
</defs>
</svg>
